<svg id="visual" viewBox="0 0 1920 250" width="1920" height="250" xmlns="http://www.w3.org/2000/svg" xmlns:xlink="http://www.w3.org/1999/xlink" version="1.1"><path d="M0 189L45.7 183.2C91.3 177.3 182.7 165.7 274.2 161.3C365.7 157 457.3 160 548.8 162.2C640.3 164.3 731.7 165.7 823 158.3C914.3 151 1005.7 135 1097 138.7C1188.3 142.3 1279.7 165.7 1371.2 175.8C1462.7 186 1554.3 183 1645.8 180.5C1737.3 178 1828.7 176 1874.3 175L1920 174L1920 0L1874.3 0C1828.7 0 1737.3 0 1645.8 0C1554.3 0 1462.7 0 1371.2 0C1279.7 0 1188.3 0 1097 0C1005.7 0 914.3 0 823 0C731.7 0 640.3 0 548.8 0C457.3 0 365.7 0 274.2 0C182.7 0 91.3 0 45.7 0L0 0Z" fill="#f3a837"></path><path d="M0 88L45.7 91.5C91.3 95 182.7 102 274.2 111C365.7 120 457.3 131 548.8 134.5C640.3 138 731.7 134 823 125.2C914.3 116.3 1005.7 102.7 1097 97.2C1188.3 91.7 1279.7 94.3 1371.2 101.2C1462.7 108 1554.3 119 1645.8 118.8C1737.3 118.7 1828.7 107.3 1874.3 101.7L1920 96L1920 0L1874.3 0C1828.7 0 1737.3 0 1645.8 0C1554.3 0 1462.7 0 1371.2 0C1279.7 0 1188.3 0 1097 0C1005.7 0 914.3 0 823 0C731.7 0 640.3 0 548.8 0C457.3 0 365.7 0 274.2 0C182.7 0 91.3 0 45.7 0L0 0Z" fill="#f7b23c"></path><path d="M0 115L45.7 106.5C91.3 98 182.7 81 274.2 75.7C365.7 70.3 457.3 76.7 548.8 82.5C640.3 88.3 731.7 93.7 823 98.5C914.3 103.3 1005.7 107.7 1097 103.7C1188.3 99.7 1279.7 87.3 1371.2 82.5C1462.7 77.7 1554.3 80.3 1645.8 84.7C1737.3 89 1828.7 95 1874.3 98L1920 101L1920 0L1874.3 0C1828.7 0 1737.3 0 1645.8 0C1554.3 0 1462.7 0 1371.2 0C1279.7 0 1188.3 0 1097 0C1005.7 0 914.3 0 823 0C731.7 0 640.3 0 548.8 0C457.3 0 365.7 0 274.2 0C182.7 0 91.3 0 45.7 0L0 0Z" fill="#fbbc41"></path><path d="M0 26L45.7 27C91.3 28 182.7 30 274.2 33C365.7 36 457.3 40 548.8 44.2C640.3 48.3 731.7 52.7 823 53.3C914.3 54 1005.7 51 1097 52C1188.3 53 1279.7 58 1371.2 61.3C1462.7 64.7 1554.3 66.3 1645.8 65.2C1737.3 64 1828.7 60 1874.3 58L1920 56L1920 0L1874.3 0C1828.7 0 1737.3 0 1645.8 0C1554.3 0 1462.7 0 1371.2 0C1279.7 0 1188.3 0 1097 0C1005.7 0 914.3 0 823 0C731.7 0 640.3 0 548.8 0C457.3 0 365.7 0 274.2 0C182.7 0 91.3 0 45.7 0L0 0Z" fill="#ffc747"></path></svg>